<mxfile host="app.diagrams.net" agent="Mozilla/5.0 (Windows NT 10.0; Win64; x64) AppleWebKit/537.36 (KHTML, like Gecko) Chrome/134.0.0.0 Safari/537.36" version="26.1.0">
  <diagram name="Page-1" id="LkgV3Um-8_ctWx4BPVgm">
    <mxGraphModel dx="1050" dy="557" grid="1" gridSize="10" guides="1" tooltips="1" connect="1" arrows="1" fold="1" page="1" pageScale="1" pageWidth="850" pageHeight="1100" math="0" shadow="0">
      <root>
        <mxCell id="0" />
        <mxCell id="1" parent="0" />
        <mxCell id="KciBcpQ4-X2h3b94fppg-1" value="" style="edgeStyle=orthogonalEdgeStyle;rounded=0;orthogonalLoop=1;jettySize=auto;html=1;" edge="1" parent="1" source="KciBcpQ4-X2h3b94fppg-9" target="KciBcpQ4-X2h3b94fppg-2">
          <mxGeometry relative="1" as="geometry" />
        </mxCell>
        <mxCell id="KciBcpQ4-X2h3b94fppg-2" value="BESS" style="shape=cylinder3;whiteSpace=wrap;html=1;boundedLbl=1;backgroundOutline=1;size=15;" vertex="1" parent="1">
          <mxGeometry x="340" y="420" width="60" height="80" as="geometry" />
        </mxCell>
        <mxCell id="KciBcpQ4-X2h3b94fppg-3" value="Charge" style="edgeStyle=orthogonalEdgeStyle;rounded=0;orthogonalLoop=1;jettySize=auto;html=1;entryX=0.5;entryY=0;entryDx=0;entryDy=0;entryPerimeter=0;exitX=0.063;exitY=0.751;exitDx=0;exitDy=0;exitPerimeter=0;" edge="1" parent="1" source="KciBcpQ4-X2h3b94fppg-4" target="KciBcpQ4-X2h3b94fppg-2">
          <mxGeometry relative="1" as="geometry">
            <mxPoint x="340" y="310" as="targetPoint" />
            <mxPoint x="410" y="270" as="sourcePoint" />
            <Array as="points">
              <mxPoint x="370" y="290" />
            </Array>
          </mxGeometry>
        </mxCell>
        <mxCell id="KciBcpQ4-X2h3b94fppg-4" value="SS" style="ellipse;whiteSpace=wrap;html=1;aspect=fixed;" vertex="1" parent="1">
          <mxGeometry x="450" y="230" width="80" height="80" as="geometry" />
        </mxCell>
        <mxCell id="KciBcpQ4-X2h3b94fppg-5" value="Discharge" style="edgeStyle=orthogonalEdgeStyle;rounded=0;orthogonalLoop=1;jettySize=auto;html=1;entryX=0.065;entryY=0.692;entryDx=0;entryDy=0;entryPerimeter=0;" edge="1" parent="1" source="KciBcpQ4-X2h3b94fppg-2" target="KciBcpQ4-X2h3b94fppg-4">
          <mxGeometry relative="1" as="geometry" />
        </mxCell>
        <mxCell id="KciBcpQ4-X2h3b94fppg-6" style="edgeStyle=orthogonalEdgeStyle;rounded=0;orthogonalLoop=1;jettySize=auto;html=1;exitX=1;exitY=0.5;exitDx=0;exitDy=0;" edge="1" parent="1" source="KciBcpQ4-X2h3b94fppg-7" target="KciBcpQ4-X2h3b94fppg-4">
          <mxGeometry relative="1" as="geometry" />
        </mxCell>
        <mxCell id="KciBcpQ4-X2h3b94fppg-7" value="Load" style="whiteSpace=wrap;html=1;" vertex="1" parent="1">
          <mxGeometry x="160" y="250" width="90" height="40" as="geometry" />
        </mxCell>
        <mxCell id="KciBcpQ4-X2h3b94fppg-8" value="Data" style="rounded=0;whiteSpace=wrap;html=1;" vertex="1" parent="1">
          <mxGeometry x="40" y="530" width="120" height="60" as="geometry" />
        </mxCell>
        <mxCell id="KciBcpQ4-X2h3b94fppg-9" value="BESS specs" style="whiteSpace=wrap;html=1;" vertex="1" parent="1">
          <mxGeometry x="320" y="560" width="100" height="40" as="geometry" />
        </mxCell>
        <mxCell id="KciBcpQ4-X2h3b94fppg-10" value="" style="edgeStyle=orthogonalEdgeStyle;rounded=0;orthogonalLoop=1;jettySize=auto;html=1;" edge="1" parent="1" target="KciBcpQ4-X2h3b94fppg-4">
          <mxGeometry relative="1" as="geometry">
            <mxPoint x="490" y="155" as="sourcePoint" />
          </mxGeometry>
        </mxCell>
        <mxCell id="KciBcpQ4-X2h3b94fppg-11" value="Electricity grid" style="ellipse;whiteSpace=wrap;html=1;" vertex="1" parent="1">
          <mxGeometry x="435" y="90" width="110" height="60" as="geometry" />
        </mxCell>
        <mxCell id="KciBcpQ4-X2h3b94fppg-12" value="" style="edgeStyle=orthogonalEdgeStyle;rounded=0;orthogonalLoop=1;jettySize=auto;html=1;" edge="1" parent="1" source="KciBcpQ4-X2h3b94fppg-13" target="KciBcpQ4-X2h3b94fppg-4">
          <mxGeometry relative="1" as="geometry" />
        </mxCell>
        <mxCell id="KciBcpQ4-X2h3b94fppg-13" value="PV" style="ellipse;whiteSpace=wrap;html=1;" vertex="1" parent="1">
          <mxGeometry x="640" y="240" width="110" height="60" as="geometry" />
        </mxCell>
        <mxCell id="KciBcpQ4-X2h3b94fppg-14" style="edgeStyle=orthogonalEdgeStyle;rounded=0;orthogonalLoop=1;jettySize=auto;html=1;entryX=0.5;entryY=1;entryDx=0;entryDy=0;" edge="1" parent="1" source="KciBcpQ4-X2h3b94fppg-15" target="KciBcpQ4-X2h3b94fppg-13">
          <mxGeometry relative="1" as="geometry" />
        </mxCell>
        <mxCell id="KciBcpQ4-X2h3b94fppg-15" value="Weather data" style="whiteSpace=wrap;html=1;" vertex="1" parent="1">
          <mxGeometry x="600" y="410" width="90" height="40" as="geometry" />
        </mxCell>
        <mxCell id="KciBcpQ4-X2h3b94fppg-16" style="edgeStyle=orthogonalEdgeStyle;rounded=0;orthogonalLoop=1;jettySize=auto;html=1;" edge="1" parent="1" source="KciBcpQ4-X2h3b94fppg-17" target="KciBcpQ4-X2h3b94fppg-13">
          <mxGeometry relative="1" as="geometry" />
        </mxCell>
        <mxCell id="KciBcpQ4-X2h3b94fppg-17" value="PV Specs" style="whiteSpace=wrap;html=1;" vertex="1" parent="1">
          <mxGeometry x="700" y="410" width="90" height="40" as="geometry" />
        </mxCell>
        <mxCell id="KciBcpQ4-X2h3b94fppg-18" value="" style="edgeStyle=orthogonalEdgeStyle;rounded=0;orthogonalLoop=1;jettySize=auto;html=1;" edge="1" parent="1" source="KciBcpQ4-X2h3b94fppg-19" target="KciBcpQ4-X2h3b94fppg-2">
          <mxGeometry relative="1" as="geometry" />
        </mxCell>
        <mxCell id="KciBcpQ4-X2h3b94fppg-19" value="Prices" style="whiteSpace=wrap;html=1;" vertex="1" parent="1">
          <mxGeometry x="180" y="440" width="90" height="40" as="geometry" />
        </mxCell>
        <mxCell id="KciBcpQ4-X2h3b94fppg-20" value="Load with waiting list" style="whiteSpace=wrap;html=1;" vertex="1" parent="1">
          <mxGeometry x="270" y="130" width="90" height="40" as="geometry" />
        </mxCell>
        <mxCell id="KciBcpQ4-X2h3b94fppg-21" value="Note: max capacity SS, maar met load waiting list." style="shape=hexagon;perimeter=hexagonPerimeter2;whiteSpace=wrap;html=1;fixedSize=1;" vertex="1" parent="1">
          <mxGeometry x="640" y="40" width="120" height="80" as="geometry" />
        </mxCell>
      </root>
    </mxGraphModel>
  </diagram>
</mxfile>
